<?xml version="1.0" standalone="no"?>
<!DOCTYPE svg PUBLIC "-//W3C//DTD SVG 20010904//EN"
 "http://www.w3.org/TR/2001/REC-SVG-20010904/DTD/svg10.dtd">
<svg version="1.0" xmlns="http://www.w3.org/2000/svg"
 width="2048.000000pt" height="2048.000000pt" viewBox="0 0 2048.000000 2048.000000"
 preserveAspectRatio="xMidYMid meet">

<g transform="translate(0.000000,2048.000000) scale(0.100000,-0.100000)"
fill="#c83737" stroke="none">
<path d="M9885 20314 c-503 -25 -841 -59 -1250 -125 -2400 -388 -4579 -1634
-6148 -3517 -955 -1146 -1653 -2515 -2017 -3957 -544 -2154 -369 -4413 502
-6453 423 -991 1024 -1933 1767 -2767 173 -195 633 -650 831 -824 1530 -1339
3338 -2167 5330 -2440 453 -62 827 -86 1360 -86 533 0 907 24 1360 86 1992
273 3800 1101 5330 2440 198 174 658 629 831 824 997 1119 1720 2403 2145
3805 641 2111 569 4403 -203 6460 -396 1057 -974 2052 -1690 2912 -1225 1470
-2820 2555 -4626 3147 -811 266 -1587 415 -2507 481 -144 11 -881 21 -1015 14z
m785 -1604 c2396 -121 4593 -1215 6123 -3050 1499 -1797 2183 -4112 1906
-6445 -336 -2824 -2081 -5300 -4639 -6580 -1620 -811 -3455 -1079 -5260 -769
-2267 389 -4290 1700 -5592 3624 -1274 1883 -1734 4217 -1273 6460 473 2300
1900 4316 3920 5542 1194 724 2566 1145 3960 1217 233 12 631 12 855 1z"/>
<path d="M9905 18544 c-342 -21 -604 -43 -702 -59 -40 -7 -41 -13 -9 -137 97
-383 377 -674 753 -783 368 -107 778 0 1053 275 89 88 186 230 231 338 36 88
85 273 77 294 -6 14 -161 33 -473 59 -123 9 -822 20 -930 13z"/>
<path d="M11496 18446 c-8 -33 -58 -223 -62 -237 -4 -12 28 -35 128 -94 749
-440 1414 -912 2123 -1510 442 -372 657 -567 1003 -909 450 -445 690 -734 813
-979 144 -285 290 -383 589 -394 406 -15 824 169 1021 450 27 39 49 76 49 84
0 24 -256 379 -425 588 -258 320 -702 784 -990 1035 -1216 1059 -2644 1726
-4223 1974 -13 2 -25 -2 -26 -8z"/>
<path d="M8750 18416 c-1502 -281 -2838 -929 -3995 -1936 -288 -251 -732 -715
-990 -1035 -175 -217 -435 -577 -435 -603 0 -26 88 -138 163 -208 301 -279
877 -400 1192 -249 114 54 202 154 290 327 131 257 366 539 831 998 805 794
1770 1566 2669 2135 144 92 560 342 577 347 6 2 1 32 -11 68 -12 36 -27 93
-34 128 l-12 62 -35 -1 c-19 0 -114 -15 -210 -33z"/>
<path d="M8874 17897 c-725 -435 -1310 -856 -2020 -1453 -931 -784 -1529
-1406 -1724 -1794 -101 -202 -146 -520 -105 -754 27 -156 80 -254 204 -376
173 -171 425 -271 721 -287 325 -17 620 95 866 329 148 142 245 304 330 551
38 113 293 648 384 808 510 895 1279 2000 1819 2613 l106 121 -74 70 c-85 80
-177 192 -218 265 -15 27 -33 50 -39 50 -6 0 -118 -64 -250 -143z"/>
<path d="M11327 17990 c-42 -74 -133 -185 -221 -268 l-77 -73 99 -112 c195
-221 555 -682 822 -1056 356 -499 872 -1313 1060 -1675 126 -241 288 -590 330
-711 82 -233 169 -381 302 -512 108 -107 199 -173 323 -234 287 -139 595 -155
920 -48 286 95 486 286 555 529 60 214 25 574 -78 792 -183 391 -781 1018
-1732 1819 -601 505 -1095 872 -1665 1235 -174 111 -595 364 -604 364 -4 0
-19 -23 -34 -50z"/>
<path d="M9502 17468 c-527 -604 -1222 -1592 -1729 -2458 -164 -281 -188 -327
-291 -550 -214 -467 -482 -1208 -513 -1422 -49 -334 115 -713 400 -928 433
-327 987 -235 1328 220 53 71 115 196 141 285 12 39 28 144 37 235 66 673 212
1610 371 2375 75 363 150 676 276 1150 154 582 278 1061 278 1073 0 7 -201
112 -214 112 -2 0 -39 -42 -84 -92z"/>
<path d="M10796 17509 c-55 -27 -101 -51 -103 -53 -4 -4 89 -368 276 -1072 65
-248 142 -550 170 -670 211 -908 395 -2019 481 -2899 20 -201 24 -226 55 -296
85 -200 257 -387 455 -497 83 -46 225 -90 330 -102 235 -27 469 46 671 208
229 184 368 450 385 737 9 146 -12 245 -120 570 -308 922 -562 1426 -1231
2440 -394 598 -905 1279 -1219 1626 l-51 56 -99 -48z"/>
<path d="M9906 17218 c-27 -106 -114 -438 -193 -738 -249 -939 -369 -1491
-508 -2335 -137 -835 -239 -1755 -220 -2000 27 -356 156 -635 400 -863 245
-229 527 -342 854 -342 269 0 480 64 696 210 285 193 467 463 541 800 28 125
25 471 -5 765 -116 1132 -330 2349 -590 3345 -49 191 -266 1019 -333 1273 -20
75 -21 78 -47 72 -148 -31 -344 -31 -516 1 l-30 5 -49 -193z"/>
<path d="M17740 13671 c-281 -79 -542 -274 -722 -540 -124 -182 -163 -350
-122 -516 9 -36 62 -156 118 -267 149 -296 244 -594 355 -1114 184 -860 312
-1892 352 -2829 12 -265 6 -1119 -7 -1267 -5 -53 -4 -68 7 -71 34 -10 166 -48
180 -53 13 -5 28 24 74 138 683 1705 780 3593 274 5375 -27 97 -79 264 -115
370 -98 292 -297 783 -319 789 -6 2 -39 -5 -75 -15z"/>
<path d="M2612 13538 c-379 -886 -592 -1766 -664 -2743 -16 -221 -16 -892 0
-1110 67 -899 251 -1711 570 -2514 31 -79 62 -145 68 -148 7 -2 47 7 90 20 71
21 79 26 78 48 -18 317 -23 1019 -10 1329 49 1185 283 2733 526 3484 64 197
126 344 195 466 66 116 90 169 110 245 53 207 -38 447 -261 684 -101 107 -246
219 -360 278 -71 37 -245 103 -271 103 -6 0 -37 -64 -71 -142z"/>
<path d="M15912 12829 c-300 -53 -609 -297 -771 -607 -92 -178 -126 -325 -125
-542 1 -174 19 -275 73 -417 46 -119 104 -211 270 -433 27 -36 127 -193 221
-350 352 -582 810 -1577 1138 -2470 105 -286 248 -720 288 -870 15 -58 28
-106 29 -107 1 -2 45 8 98 22 117 30 237 44 339 40 l76 -3 9 107 c15 198 8
1260 -10 1541 -70 1045 -248 2229 -438 2907 -86 306 -186 554 -279 694 -85
127 -278 298 -437 390 -154 88 -335 125 -481 98z"/>
<path d="M4290 12815 c-186 -53 -363 -168 -536 -348 -119 -124 -176 -216 -257
-416 -186 -461 -342 -1211 -476 -2297 -95 -764 -128 -1354 -117 -2079 3 -236
9 -464 12 -506 l7 -76 141 -6 c130 -6 267 -28 338 -56 26 -10 28 -9 38 32 112
427 381 1175 653 1807 230 538 569 1237 714 1475 202 331 285 458 364 562 147
191 219 333 261 516 17 73 22 126 22 252 1 177 -14 269 -65 409 -124 342 -450
650 -769 726 -98 23 -258 26 -330 5z"/>
<path d="M6445 11830 c-162 -25 -355 -111 -472 -209 -207 -174 -820 -1001
-1076 -1452 -130 -229 -413 -814 -592 -1224 -207 -474 -390 -943 -541 -1389
-77 -228 -184 -571 -184 -591 0 -3 17 -13 38 -24 20 -11 64 -38 97 -60 l60
-41 30 34 c354 398 1144 1245 1410 1512 647 649 1314 1249 1977 1777 164 131
200 172 264 302 113 233 136 528 60 753 -125 367 -467 605 -886 617 -69 2
-152 0 -185 -5z"/>
<path d="M13715 11833 c-120 -16 -319 -94 -422 -164 -153 -105 -277 -269 -339
-451 -74 -217 -51 -512 56 -736 71 -148 109 -192 295 -340 836 -666 1815
-1578 2485 -2312 440 -482 766 -838 832 -908 l69 -73 62 39 c34 22 79 48 100
58 20 10 37 21 37 25 0 18 -115 393 -173 564 -225 663 -497 1323 -837 2035
-223 468 -360 714 -568 1020 -291 429 -695 944 -811 1035 -190 149 -389 216
-631 213 -69 0 -138 -3 -155 -5z"/>
<path d="M8255 10566 c-205 -35 -372 -101 -550 -220 -309 -205 -1050 -823
-1625 -1355 -546 -504 -956 -920 -1520 -1541 -173 -190 -390 -427 -483 -527
-93 -101 -167 -187 -165 -192 1 -5 23 -32 48 -61 105 -122 200 -277 237 -386
l11 -32 624 204 c1061 347 1318 437 1862 656 960 386 2090 923 2441 1162 50
33 135 106 191 161 167 166 264 337 326 573 30 113 32 125 32 327 0 197 -1
216 -26 308 -15 54 -50 145 -77 203 -181 379 -476 611 -896 704 -118 26 -324
34 -430 16z"/>
<path d="M11834 10564 c-240 -40 -495 -162 -657 -314 -172 -161 -312 -398
-369 -627 -30 -119 -32 -412 -5 -543 54 -255 149 -438 320 -617 149 -155 267
-234 662 -440 876 -457 2119 -986 3030 -1291 759 -255 1440 -473 1443 -463 11
33 96 199 128 248 20 32 68 95 107 141 l70 83 -20 22 c-11 12 -98 108 -194
212 -96 105 -292 318 -434 475 -608 670 -991 1056 -1595 1611 -492 452 -1156
1008 -1479 1238 -202 145 -395 231 -595 266 -107 18 -300 18 -412 -1z"/>
<path d="M11245 7949 c-401 -48 -699 -289 -812 -656 -24 -80 -27 -102 -27
-253 0 -147 3 -176 27 -264 90 -337 324 -592 640 -697 377 -126 1189 -291
1641 -334 387 -36 1576 -45 2091 -16 513 30 965 72 1267 117 l107 17 5 41 c3
22 10 77 16 120 6 43 9 80 8 81 -2 2 -239 80 -528 175 -1196 391 -1254 412
-1845 645 -639 253 -1280 539 -1875 837 -314 157 -331 164 -460 183 -103 16
-148 17 -255 4z"/>
<path d="M8905 7930 c-75 -16 -137 -42 -375 -161 -320 -160 -456 -225 -698
-335 -92 -42 -200 -92 -240 -110 -41 -19 -75 -34 -77 -34 -3 0 -231 -99 -310
-135 -71 -32 -621 -256 -735 -299 -69 -26 -134 -51 -145 -56 -27 -11 -295
-110 -420 -154 -218 -77 -312 -108 -600 -201 -549 -178 -1030 -337 -1038 -344
-4 -4 -2 -60 5 -124 l12 -116 62 -10 c291 -51 858 -103 1454 -132 499 -25
1611 -13 1970 22 491 47 1486 260 1728 370 258 117 457 359 539 656 25 88 27
115 28 263 0 188 -12 251 -75 387 -48 102 -87 161 -164 242 -117 122 -272 210
-454 258 -136 35 -339 41 -467 13z"/>
<path d="M17282 6920 c-378 -53 -681 -273 -842 -612 -151 -319 -136 -697 41
-1000 50 -86 143 -203 200 -251 l43 -38 19 23 c299 377 603 836 827 1248 114
208 273 541 263 550 -13 12 -130 48 -208 65 -90 19 -262 26 -343 15z"/>
<path d="M2895 6911 c-62 -10 -205 -49 -224 -61 -12 -7 -9 -21 19 -82 164
-360 407 -793 645 -1148 119 -177 389 -545 420 -570 35 -29 196 166 275 332
293 618 -47 1331 -720 1510 -83 22 -326 33 -415 19z"/>
<path d="M8777 5729 c-49 -5 -139 -20 -200 -34 -212 -49 -227 -51 -732 -110
-248 -29 -590 -40 -1210 -40 -439 0 -944 10 -1008 20 -12 2 -83 6 -157 10 -74
4 -148 8 -165 10 -16 2 -66 7 -110 10 -44 3 -102 7 -130 10 -360 33 -479 47
-690 81 -49 7 -92 10 -95 6 -4 -4 -12 -43 -19 -87 -16 -98 -51 -213 -97 -313
-19 -41 -34 -76 -34 -79 0 -8 543 -272 752 -366 571 -255 1092 -450 1746 -653
773 -239 1401 -394 1907 -471 158 -24 210 -27 430 -27 245 0 252 0 340 27 222
69 412 176 550 312 72 71 100 106 128 165 55 112 78 214 79 350 2 437 -257
861 -647 1057 -193 98 -430 143 -638 122z"/>
<path d="M11395 5725 c-241 -45 -444 -148 -613 -310 -112 -107 -171 -187 -242
-330 -100 -201 -136 -360 -127 -565 8 -206 63 -338 195 -473 144 -147 398
-284 617 -333 106 -24 415 -24 600 0 524 67 1147 217 2021 486 699 216 1277
436 1909 727 104 48 575 280 583 287 1 2 -16 41 -37 87 -45 95 -83 219 -101
328 l-12 74 -47 -6 c-25 -3 -91 -13 -146 -22 -204 -31 -721 -79 -1085 -101
-516 -30 -1264 -36 -1830 -14 -298 12 -372 18 -720 61 -244 30 -271 35 -490
84 -148 33 -357 42 -475 20z"/>
<path d="M16325 5024 c-255 -137 -884 -419 -1290 -579 -957 -377 -2267 -749
-3055 -869 -267 -40 -413 -50 -620 -41 -300 13 -377 5 -484 -53 -110 -59 -242
-213 -326 -381 -45 -90 -106 -280 -125 -385 -20 -116 -20 -315 1 -414 21 -102
64 -208 119 -293 l45 -69 52 0 c72 0 303 17 478 36 1751 183 3375 906 4695
2089 189 169 524 507 683 689 l114 130 -44 40 c-24 23 -66 66 -93 98 l-50 56
-100 -54z"/>
<path d="M3970 4994 c-35 -41 -71 -79 -79 -84 -12 -7 -8 -16 23 -55 171 -208
594 -637 841 -854 1388 -1215 3115 -1933 4937 -2052 l187 -12 21 24 c33 39
119 219 135 283 54 216 37 448 -54 705 -92 262 -244 461 -414 542 -88 41 -178
53 -337 44 -226 -13 -439 -9 -555 9 -17 3 -68 10 -115 17 -290 39 -800 146
-1165 245 -1271 344 -2149 667 -3118 1146 -131 65 -239 118 -241 118 -2 0 -32
-34 -66 -76z"/>
</g>
</svg>
