<svg xmlns="http://www.w3.org/2000/svg" width="1360" height="177" viewBox="0 0 1360 177">
  <defs>
    <style>
      .cls-1 {
        fill: #fff;
        fill-rule: evenodd;
      }
    </style>
  </defs>
  <path id="DEMER_NKARDAZ_копия" data-name="DEMER NKARDAZ копия" class="cls-1" d="M89.582,136.6a52.765,52.765,0,0,0,25.172-6.108,46.39,46.39,0,0,0,18.251-17.347,49.164,49.164,0,0,0,6.768-25.868,43.04,43.04,0,0,0-6.54-23.38,45.461,45.461,0,0,0-18.479-16.441q-11.942-6.031-27.3-6.033-2.738,0-10.647.3-6.541.453-12.776,0.453-4.107,0-11.1-.3l-8.061-.151q-0.456,0-.456.905t0.456,0.905a21.2,21.2,0,0,1,6.92.83A5.023,5.023,0,0,1,54.829,47.3a19.386,19.386,0,0,1,.837,6.637v69.837a20.08,20.08,0,0,1-.837,6.713,4.771,4.771,0,0,1-3.118,2.941,24.633,24.633,0,0,1-7.148.754c-0.2,0-.3.3-0.3,0.905s0.1,0.905.3,0.905q5.169,0,8.213-.151l11.255-.151q4.41,0,7.985.151t6.008,0.3q6.691,0.453,11.559.452h0Zm-1.521-3.469q-9.126,0-12.32-2.489t-3.194-8.522V54.243q0-5.883,3.5-7.693t12.928-1.81a25.732,25.732,0,0,1,16.882,6.034q7.3,6.035,11.255,16.516a65.6,65.6,0,0,1,3.955,23.3q0,13.427-4.183,23.078t-11.635,14.556a30.557,30.557,0,0,1-17.187,4.9h0Zm65.4,2.866h67.226a2.379,2.379,0,0,0,1.825-.528,2.637,2.637,0,0,0,.456-1.735,168.115,168.115,0,0,1,1.521-21.418,0.646,0.646,0,0,0-.38-0.377,1.611,1.611,0,0,0-.837-0.227c-0.406,0-.608.1-0.608,0.3q-3.348,10.107-10.5,14.933t-19.011,4.827h-5.019q-3.651,0-5.324-2.112t-1.673-6.486V54.092q0-4.073,2.13-6.033t6.692-1.961h4.563q9.427,0,15.209,4.223t8.213,12.972q0.15,0.452.989,0.3c0.556-.1.836-0.25,0.836-0.453l-0.3-20.061a1.278,1.278,0,0,0-1.521-1.358H153.459q-0.456,0-.456.905t0.456,0.905a21.948,21.948,0,0,1,7,.83A4.777,4.777,0,0,1,163.5,47.3a21.185,21.185,0,0,1,.76,6.637v69.837a21.948,21.948,0,0,1-.76,6.713,4.549,4.549,0,0,1-2.966,2.941,23.817,23.817,0,0,1-7.073.754q-0.456,0-.456.905T153.459,136h0Zm58.708-33.636c0,0.2.305,0.3,0.913,0.3s0.913-.1.913-0.3q0-3.016-.305-8.146l-0.152-7.24L213.688,73.4c0-.3-0.28-0.453-0.836-0.453s-0.837.151-.837,0.453a9.5,9.5,0,0,1-4.715,8.447q-4.716,3.019-13.536,3.017H173.079v4.223h20.533q8.973,0,13.764,3.545a11.445,11.445,0,0,1,4.791,9.729h0Zm36.805,14.48q-0.153,8-3.8,12.67a11.879,11.879,0,0,1-9.886,4.676q-0.457,0-.457.905T235.284,136q4.106,0,6.54-.151l9.581-.151,8.366,0.151q2.28,0.153,6.387.151,0.457,0,.457-0.905t-0.457-.905a11.325,11.325,0,0,1-9.657-4.6q-3.423-4.6-3.27-12.745L254.9,45.494l-4.411-.3Zm108.9,17.346a23.1,23.1,0,0,1-6.921-.754,4.762,4.762,0,0,1-3.041-2.866,24.189,24.189,0,0,1-1.141-6.788L343.118,55.3q-0.307-6.031,2.889-8.9t10.343-2.866q0.456,0,.456-0.905t-0.456-.905q-3.957,0-6.084.151l-8.974.151c-1.52,0-2.866-.05-4.03-0.151s-2.2-.151-3.118-0.151a4.014,4.014,0,0,0-2.662.83,8,8,0,0,0-1.9,2.941l-35.589,81,7.6-13.575L267.527,49.567a66.689,66.689,0,0,0-3.954-6.486,3.642,3.642,0,0,0-3.042-1.358,33.447,33.447,0,0,0-3.5.151l-8.061.151q-3.348,0-5.475-.151l-7.149-.151q-0.456,0-.456.905t0.456,0.905a11.872,11.872,0,0,1,7.529,2.564,26.208,26.208,0,0,1,6.312,8.145l42.738,80.7a1.527,1.527,0,0,0,2.433,0l38.784-90.2-7.757,12.067,3.5,66.971a17.665,17.665,0,0,1-.457,6.637,4.774,4.774,0,0,1-3.118,2.941,23.283,23.283,0,0,1-7.224.83q-0.456,0-.456.905T319.087,136q5.019,0,7.909-.151l11.407-.151,11.255,0.151q3.04,0.153,8.213.151,0.3,0,.3-0.905t-0.3-.905h0Zm9.885,1.81h67.225a2.378,2.378,0,0,0,1.825-.528,2.637,2.637,0,0,0,.456-1.735,168.3,168.3,0,0,1,1.521-21.418,0.646,0.646,0,0,0-.38-0.377,1.6,1.6,0,0,0-.836-0.227c-0.407,0-.609.1-0.609,0.3q-3.347,10.107-10.494,14.933t-19.012,4.827h-5.019q-3.649,0-5.323-2.112t-1.673-6.486V54.092q0-4.073,2.129-6.033t6.692-1.961h4.563q9.429,0,15.209,4.223t8.213,12.972c0.1,0.3.431,0.4,0.989,0.3s0.837-.25.837-0.453l-0.305-20.061a1.278,1.278,0,0,0-1.521-1.358H367.756q-0.456,0-.456.905t0.456,0.905a21.941,21.941,0,0,1,7,.83,4.775,4.775,0,0,1,3.042,2.941,21.179,21.179,0,0,1,.761,6.637v69.837a21.942,21.942,0,0,1-.761,6.713,4.544,4.544,0,0,1-2.966,2.941,23.809,23.809,0,0,1-7.072.754q-0.456,0-.456.905T367.756,136h0Zm58.708-33.636c0,0.2.3,0.3,0.912,0.3s0.913-.1.913-0.3q0-3.016-.3-8.146l-0.152-7.24L427.985,73.4c0-.3-0.281-0.453-0.837-0.453s-0.836.151-.836,0.453a9.5,9.5,0,0,1-4.715,8.447q-4.716,3.019-13.536,3.017H387.376v4.223h20.533q8.971,0,13.764,3.545a11.445,11.445,0,0,1,4.791,9.729h0ZM526.083,136h27.072c0.2,0,.305-0.3.305-0.905s-0.1-.905-0.305-0.905q-6.237,0-12.775-5.053T525.4,113.069q-8.441-11.008-21.064-30.771l-13.993,4.374q13.381,23.383,22.814,36.351T526.083,136h0ZM491.406,41.271q-3.651,0-6.312.151t-4.335.3q-5.172.453-9.734,0.453-4.107,0-11.1-.3l-8.061-.151c-0.2,0-.3.3-0.3,0.905s0.1,0.905.3,0.905a21.948,21.948,0,0,1,7,.83A4.777,4.777,0,0,1,461.9,47.3a21.185,21.185,0,0,1,.76,6.637v69.837a20.085,20.085,0,0,1-.836,6.713,4.771,4.771,0,0,1-3.042,2.941,23.817,23.817,0,0,1-7.073.754q-0.456,0-.456.905T451.709,136q5.169,0,8.213-.151l11.1-.151,11.559,0.151q2.887,0.153,7.909.151,0.3,0,.3-0.905t-0.3-.905a23.787,23.787,0,0,1-7.072-.754,4.534,4.534,0,0,1-2.966-2.866,21.742,21.742,0,0,1-.761-6.788V88.784q2.431,0.152,8.366.151a33.274,33.274,0,0,0,15.665-4,34.858,34.858,0,0,0,12.32-10.559,23.508,23.508,0,0,0,4.715-13.952,15.982,15.982,0,0,0-7.681-14.1q-7.681-5.052-21.673-5.053h0Zm11.863,24.888q0,7.392-1.445,11.463a9.787,9.787,0,0,1-4.639,5.732,18.94,18.94,0,0,1-8.669,1.659,55,55,0,0,1-8.822-.6V54.243q0-5.278,2.13-7.542t7.3-2.263q6.844,0,10.5,4.676t3.65,17.045h0Zm103.27,50.681q0,8-3.878,12.67a13,13,0,0,1-10.571,4.676q-0.456,0-.456.905T592.09,136q4.866,0,7.453-.151l9.429-.151,8.213,0.151q2.282,0.153,6.54.151c0.2,0,.3-0.3.3-0.905s-0.1-.905-0.3-0.905a10.77,10.77,0,0,1-9.277-4.676q-3.348-4.674-3.346-12.67V45.494l-4.563-.3V116.84Zm77.567,21.419-1.216-24.888-55.819-63.8q-1.065-1.206-3.65-4.676a32.728,32.728,0,0,0-2.129-2.564,2.5,2.5,0,0,0-1.825-.6q-3.045,0-5.171.151l-11.559.151q-3.8,0-5.78-.151l-6.388-.151c-0.2,0-.3.3-0.3,0.905s0.1,0.905.3,0.905a15.008,15.008,0,0,1,7.757,2.263q3.8,2.262,9.125,8.3l74.982,84.619a1.041,1.041,0,0,0,.989.151,0.685,0.685,0,0,0,.684-0.6h0Zm0-77.229q0-7.993,3.5-12.746a11.253,11.253,0,0,1,9.581-4.751c0.2,0,.3-0.3.3-0.905s-0.1-.905-0.3-0.905l-6.844.151q-5.475.3-8.517,0.3-3.346,0-8.213-.3l-6.54-.151c-0.2,0-.3.3-0.3,0.905s0.1,0.905.3,0.905a10.781,10.781,0,0,1,9.278,4.676q3.343,4.677,3.346,12.821v72.7l4.41,4.526V61.03Zm30.569-7.089v69.837a20.08,20.08,0,0,1-.837,6.713,4.769,4.769,0,0,1-3.118,2.941,24.625,24.625,0,0,1-7.148.754c-0.2,0-.3.3-0.3,0.905s0.1,0.905.3,0.905q5.169,0,8.213-.151l11.255-.151,11.407,0.151q2.887,0.153,7.909.151c0.4,0,.608-0.3.608-0.905s-0.2-.905-0.608-0.905a23.787,23.787,0,0,1-7.072-.754,4.534,4.534,0,0,1-2.966-2.866,21.742,21.742,0,0,1-.761-6.788V54.243a20,20,0,0,1,.837-6.712,5.25,5.25,0,0,1,3.042-3.092,19.493,19.493,0,0,1,6.92-.905q0.456,0,.456-0.905t-0.456-.905l-7.757.151q-7,.3-11.559.3-4.107,0-11.1-.3l-8.061-.151q-0.456,0-.456.905t0.456,0.905a21.2,21.2,0,0,1,6.92.83,5.021,5.021,0,0,1,3.042,2.941,19.386,19.386,0,0,1,.837,6.637h0Zm40.152,60.184q1.216,1.66,2.206,2.941t1.749,2.338q6.389,8.6,8.9,11.614a21.047,21.047,0,0,0,4.259,4.148,7.52,7.52,0,0,0,4.183,1.132c0.708,0,1.62-.052,2.737-0.151s2.484-.151,4.107-0.151H800q0.456,0,.456-0.905T800,134.186a18.208,18.208,0,0,1-7.757-1.433q-3.043-1.431-7.984-7.24t-14.83-19.835l-23.27-31.072L733.991,86.22Zm5.324-56.865L720.911,97.08l4.106,0.453,39.088-39.368a57.154,57.154,0,0,1,15.209-10.634q8.364-3.995,15.362-4,0.456,0,.456-0.905t-0.456-.905l-6.844.151q-6.694.3-12.928,0.3-5.783,0-12.472-.3l-7.148-.151q-0.456,0-.457.905t0.457,0.905a13.029,13.029,0,0,1,6.844,1.508,4.723,4.723,0,0,1,2.433,4.223q0,3.62-4.41,7.994h0ZM831.786,90.9h34.678L865.4,86.673H834.068Zm75.9,43.29q-3.8,0-7.3-4.073t-8.821-14.782L853.536,41.12q-0.153-.453-1.369-0.453a1.58,1.58,0,0,0-1.369.453l-33,71.949a105.073,105.073,0,0,1-6.844,13.2,19.3,19.3,0,0,1-5.78,6.184,13.66,13.66,0,0,1-7.148,1.735c-0.4,0-.609.3-0.609,0.905s0.205,0.905.609,0.905q3.193,0,8.365-.3,5.778-.3,9.886-0.3,4.255,0,10.038.3,5.169,0.3,7.909.3a0.919,0.919,0,0,0,0-1.81q-6.542,0-10.418-3.017a10.087,10.087,0,0,1-3.879-8.447,19.889,19.889,0,0,1,1.977-8.145L852.167,48.36l-7.453,12.972,30.875,60.485q3.04,6.036,3.042,8.6a2.978,2.978,0,0,1-1.749,2.941,14.26,14.26,0,0,1-5.7.83c-0.407,0-.609.3-0.609,0.905s0.2,0.905.609,0.905q3.041,0,8.213-.3,5.475-.3,9.277-0.3,2.888,0,9.582.3,6.389,0.3,9.43.3a0.919,0.919,0,0,0,0-1.81h0ZM988.136,136h27.074q0.3,0,.3-0.905t-0.3-.905q-6.24,0-12.78-5.053t-14.978-16.064q-8.44-11.008-21.065-30.771L952.4,86.673q13.382,23.383,22.814,36.351T988.136,136h0ZM953.459,41.271q-3.649,0-6.312.151t-4.334.3q-5.173.453-9.734,0.453-4.107,0-11.1-.3l-8.061-.151c-0.2,0-.3.3-0.3,0.905s0.1,0.905.3,0.905a21.941,21.941,0,0,1,7,.83,4.775,4.775,0,0,1,3.042,2.941,21.179,21.179,0,0,1,.761,6.637v69.837a20.08,20.08,0,0,1-.837,6.713,4.767,4.767,0,0,1-3.042,2.941,23.809,23.809,0,0,1-7.072.754q-0.456,0-.456.905T913.763,136q5.169,0,8.213-.151l11.1-.151,11.559,0.151q2.887,0.153,7.909.151,0.3,0,.3-0.905t-0.3-.905a23.794,23.794,0,0,1-7.073-.754,4.536,4.536,0,0,1-2.966-2.866,21.779,21.779,0,0,1-.76-6.788V88.784q2.431,0.152,8.365.151a33.281,33.281,0,0,0,15.666-4A34.855,34.855,0,0,0,978.1,74.379a23.5,23.5,0,0,0,4.715-13.952,15.983,15.983,0,0,0-7.68-14.1q-7.683-5.052-21.674-5.053h0Zm11.863,24.888q0,7.392-1.444,11.463a9.787,9.787,0,0,1-4.639,5.732,18.944,18.944,0,0,1-8.67,1.659,54.978,54.978,0,0,1-8.821-.6V54.243q0-5.278,2.129-7.542t7.3-2.263q6.845,0,10.494,4.676t3.65,17.045h0Zm97.948,70.44a52.754,52.754,0,0,0,25.17-6.108,46.328,46.328,0,0,0,18.25-17.347,49.165,49.165,0,0,0,6.77-25.868,43.032,43.032,0,0,0-6.54-23.38,45.451,45.451,0,0,0-18.48-16.441q-11.94-6.031-27.3-6.033-2.73,0-10.65.3-6.54.453-12.77,0.453-4.11,0-11.1-.3l-8.07-.151q-0.45,0-.45.905t0.45,0.905a21.275,21.275,0,0,1,6.93.83,5.046,5.046,0,0,1,3.04,2.941,19.572,19.572,0,0,1,.83,6.637v69.837a20.274,20.274,0,0,1-.83,6.713,4.779,4.779,0,0,1-3.12,2.941,24.659,24.659,0,0,1-7.15.754q-0.3,0-.3.905t0.3,0.905c3.45,0,6.18-.049,8.21-0.151l11.26-.151q4.41,0,7.98.151c2.38,0.1,4.39.2,6.01,0.3q6.69,0.453,11.56.452h0Zm-1.52-3.469q-9.12,0-12.32-2.489t-3.19-8.522V54.243q0-5.883,3.49-7.693c2.34-1.207,6.64-1.81,12.93-1.81a25.709,25.709,0,0,1,16.88,6.034q7.305,6.035,11.26,16.516a65.733,65.733,0,0,1,3.95,23.3q0,13.427-4.18,23.078t-11.63,14.556a30.565,30.565,0,0,1-17.19,4.9h0ZM1152.24,90.9h34.68l-1.06-4.223h-31.33Zm75.9,43.29q-3.81,0-7.3-4.073-3.51-4.073-8.82-14.782L1173.99,41.12c-0.1-.3-0.56-0.453-1.37-0.453a1.558,1.558,0,0,0-1.36.453l-33.01,71.949a106.1,106.1,0,0,1-6.84,13.2,19.374,19.374,0,0,1-5.78,6.184,13.667,13.667,0,0,1-7.15,1.735c-0.4,0-.61.3-0.61,0.905s0.21,0.905.61,0.905q3.195,0,8.36-.3c3.86-.2,7.15-0.3,9.89-0.3,2.84,0,6.18.1,10.04,0.3q5.16,0.3,7.91.3a0.919,0.919,0,0,0,0-1.81q-6.54,0-10.42-3.017a10.077,10.077,0,0,1-3.88-8.447,19.881,19.881,0,0,1,1.98-8.145l30.26-66.217-7.45,12.972,30.88,60.485c2.02,4.024,3.04,6.889,3.04,8.6a2.986,2.986,0,0,1-1.75,2.941,14.27,14.27,0,0,1-5.7.83c-0.41,0-.61.3-0.61,0.905s0.2,0.905.61,0.905q3.03,0,8.21-.3,5.475-.3,9.28-0.3c1.92,0,5.12.1,9.58,0.3q6.39,0.3,9.43.3a0.919,0.919,0,0,0,0-1.81h0Zm62.35-88.692-53.38,88.541a1.18,1.18,0,0,0-.15,1.282,0.968,0.968,0,0,0,.91.679q50.19,0,72.85.3a1.162,1.162,0,0,0,.99-0.528,1.738,1.738,0,0,0,.38-0.981l2.13-21.871c0-.3-0.25-0.452-0.76-0.452a0.827,0.827,0,0,0-.91.452,22.241,22.241,0,0,1-4.56,9.955,27.941,27.941,0,0,1-8.83,7.467,22.09,22.09,0,0,1-10.64,2.79h-30.73a1.456,1.456,0,0,1-1.06-.226,1.159,1.159,0,0,1,.46-0.981l52.62-88.239a0.965,0.965,0,0,0,.08-1.207,1.232,1.232,0,0,0-1.14-.754h-55.52a26.172,26.172,0,0,1-7.07-.6,2.352,2.352,0,0,1-1.75-2.413,3.948,3.948,0,0,1,.15-1.207c0.2-.3-0.2-0.453-1.21-0.453-0.41,0-.61.052-0.61,0.151l-6.09,26.246c-0.1.4,0.31,0.6,1.22,0.6a0.892,0.892,0,0,0,.61-0.151q4.26-8.746,10.04-12.9t14.83-5.43q9.045-1.28,26.38-1.282a1.44,1.44,0,0,1,1.14.226,1.626,1.626,0,0,1-.38.98h0Z"/>
</svg>
